<svg xmlns:dc="http://purl.org/dc/elements/1.1/" xmlns:cc="http://creativecommons.org/ns#" xmlns:rdf="http://www.w3.org/1999/02/22-rdf-syntax-ns#" xmlns:svg="http://www.w3.org/2000/svg" xmlns="http://www.w3.org/2000/svg" version="1.1" viewBox="0 0 5.2916665 9.2604165" x="0px" y="0px"><g transform="translate(-107.42083,-166.95208)"><path style="" d="m 197,361 a 0.9999988,0.9999988 0 0 0 -1,1 v 26 a 0.9999988,0.9999988 0 0 0 1,1 h 18 a 0.9999988,0.9999988 0 0 0 1,-1 v -20 a 2.4142107,2.4142107 0 0 0 -0.0527,-0.5 h -0.16797 -4.78321 c -0.20623,0 -0.40256,-0.0425 -0.58203,-0.11914 -0.0895,-0.0381 -0.17416,-0.0846 -0.2539,-0.13867 -0.23885,-0.16189 -0.42856,-0.39032 -0.54297,-0.65821 0,0 0,-0.002 0,-0.002 -0.0762,-0.17904 -0.11914,-0.37445 -0.11914,-0.58008 v -4.7832 -0.16602 A 2.4142107,2.4142107 0 0 0 209,361 Z m 13.50195,0.53711 v 0.66992 3.79492 c 0,0.141 0.0522,0.26523 0.14063,0.35547 0.0444,0.0457 0.0982,0.0822 0.1582,0.10742 0.0596,0.025 0.12483,0.0391 0.19531,0.0391 h 3.80274 0.66992 c -0.0431,-0.0542 -0.0812,-0.11171 -0.12891,-0.16211 -0.0151,-0.0151 -0.0302,-0.0341 -0.0469,-0.0488 l -4.58594,-4.58594 c -0.0631,-0.0629 -0.13561,-0.11456 -0.20508,-0.16992 z m -10.5039,10.96094 c 0.47879,0 0.87504,0.2948 1.12109,0.66406 0.24627,0.36911 0.38477,0.83163 0.38477,1.33594 0,0.50426 -0.13872,0.97449 -0.38477,1.34375 -0.24608,0.36895 -0.6423,0.65625 -1.12109,0.65625 -0.47883,0 -0.877,-0.28699 -1.12305,-0.65625 -0.24605,-0.36915 -0.375,-0.83949 -0.375,-1.34375 0,-0.50431 0.12895,-0.96668 0.375,-1.33594 0.24609,-0.36918 0.64422,-0.66406 1.12305,-0.66406 z m 2.98828,0 a 0.49999941,0.49999941 0 0 1 0.0156,0 0.49999941,0.49999941 0 0 1 0.49414,0.50195 v 2.99609 a 0.49999941,0.49999941 0 0 1 -0.49414,0.50196 A 0.49999941,0.49999941 0 0 1 202.5,375.99609 V 373 a 0.49999941,0.49999941 0 0 1 0.48633,-0.50195 z m 3.01367,0 c 0.47879,0 0.87505,0.2948 1.12109,0.66406 0.24605,0.36911 0.37692,0.83163 0.37696,1.33594 0,0.50426 -0.13091,0.97449 -0.37696,1.34375 -0.24608,0.36895 -0.6423,0.65625 -1.12109,0.65625 -0.47883,0 -0.877,-0.28699 -1.12305,-0.65625 -0.24604,-0.36915 -0.37695,-0.83949 -0.37695,-1.34375 0,-0.50431 0.13091,-0.96668 0.37695,-1.33594 0.24609,-0.36918 0.64422,-0.66406 1.12305,-0.66406 z m 2.98828,0 a 0.49999941,0.49999941 0 0 1 0.0156,0 0.49999941,0.49999941 0 0 1 0.49414,0.50195 v 2.99609 a 0.49999941,0.49999941 0 0 1 -0.49414,0.50196 0.49999941,0.49999941 0 0 1 -0.50196,-0.50196 V 373 a 0.49999941,0.49999941 0 0 1 0.48633,-0.50195 z m 3.01172,0 c 0.47879,0 0.877,0.2948 1.12305,0.66406 0.24604,0.36911 0.375,0.83163 0.375,1.33594 0,0.50426 -0.12896,0.97449 -0.375,1.34375 -0.24609,0.36895 -0.64426,0.65625 -1.12305,0.65625 -0.47883,0 -0.87505,-0.28699 -1.12109,-0.65625 -0.24605,-0.36915 -0.37696,-0.83949 -0.37696,-1.34375 0,-0.50431 0.13091,-0.96668 0.37696,-1.33594 0.24608,-0.36918 0.6423,-0.66406 1.12109,-0.66406 z m -12.00195,1.0039 c -0.0737,0 -0.17303,0.039 -0.28907,0.21289 -0.11603,0.17375 -0.20703,0.45892 -0.20703,0.78321 0,0.32413 0.0914,0.60934 0.20703,0.7832 0.11604,0.17386 0.21537,0.2207 0.28907,0.2207 0.0733,0 0.17889,-0.0468 0.29492,-0.2207 0.11603,-0.17378 0.20703,-0.45892 0.20703,-0.7832 0,-0.32417 -0.0914,-0.60935 -0.20703,-0.78321 -0.11565,-0.17348 -0.2216,-0.21289 -0.29492,-0.21289 z m 6.00195,0 c -0.0737,0 -0.17303,0.039 -0.28906,0.21289 -0.11566,0.17375 -0.21289,0.45892 -0.21289,0.78321 0,0.32413 0.0972,0.60934 0.21289,0.7832 0.11603,0.17386 0.21574,0.2207 0.28906,0.2207 0.0733,0 0.17889,-0.0468 0.29492,-0.2207 0.11603,-0.17378 0.20508,-0.45892 0.20508,-0.7832 0,-0.32417 -0.0894,-0.60935 -0.20508,-0.78321 -0.11565,-0.17348 -0.2216,-0.21289 -0.29492,-0.21289 z m 6,0 c -0.0733,0 -0.17927,0.039 -0.29492,0.21289 -0.11603,0.17375 -0.20703,0.45892 -0.20703,0.78321 0,0.32413 0.091,0.60934 0.20703,0.7832 0.11565,0.17386 0.2216,0.2207 0.29492,0.2207 0.0737,0 0.17303,-0.0468 0.28906,-0.2207 0.11566,-0.17378 0.21289,-0.45892 0.21289,-0.7832 0,-0.32417 -0.0969,-0.60935 -0.21289,-0.78321 -0.11603,-0.17348 -0.21574,-0.21289 -0.28906,-0.21289 z m -12.00195,4 c 0.47879,0 0.87504,0.28895 1.12109,0.65821 0.24627,0.3691 0.38477,0.83944 0.38477,1.34375 0,0.50426 -0.13872,0.96667 -0.38477,1.33593 -0.24608,0.36919 -0.6423,0.66407 -1.12109,0.66407 -0.47883,0 -0.877,-0.29481 -1.12305,-0.66407 -0.24605,-0.3691 -0.375,-0.83167 -0.375,-1.33593 0,-0.50431 0.12895,-0.97449 0.375,-1.34375 0.24609,-0.369 0.64422,-0.65821 1.12305,-0.65821 z m 4,0 c 0.47883,0 0.877,0.28895 1.12304,0.65821 0.24605,0.3691 0.375,0.83944 0.375,1.34375 0,0.50426 -0.12895,0.96667 -0.375,1.33593 -0.24604,0.36919 -0.64425,0.66407 -1.12304,0.66407 -0.47879,0 -0.87505,-0.29481 -1.1211,-0.66407 -0.24604,-0.3691 -0.37695,-0.83167 -0.37695,-1.33593 0,-0.50431 0.13091,-0.97449 0.37695,-1.34375 0.24609,-0.369 0.64227,-0.65821 1.1211,-0.65821 z m 2.99804,0 a 0.49999941,0.49999941 0 0 1 0.008,0 0.49999941,0.49999941 0 0 1 0.49414,0.49414 v 3.00586 a 0.49999941,0.49999941 0 0 1 -0.49414,0.50196 0.49999941,0.49999941 0 0 1 -0.50196,-0.50196 v -3.00586 a 0.49999941,0.49999941 0 0 1 0.49414,-0.49414 z m 3.00391,0 c 0.47883,0 0.87505,0.28895 1.12109,0.65821 0.24605,0.3691 0.37696,0.83944 0.37696,1.34375 0,0.50426 -0.13091,0.96667 -0.37696,1.33593 -0.24608,0.36919 -0.6423,0.66407 -1.12109,0.66407 -0.47879,0 -0.87505,-0.29481 -1.12109,-0.66407 -0.24605,-0.3691 -0.37696,-0.83167 -0.37696,-1.33593 0,-0.50431 0.13091,-0.97449 0.37696,-1.34375 0.24608,-0.369 0.64226,-0.65821 1.12109,-0.65821 z m 2.99609,0 a 0.49999941,0.49999941 0 0 1 0.50196,0.49414 v 3.00586 a 0.49999941,0.49999941 0 0 1 -0.50196,0.50196 0.49999941,0.49999941 0 0 1 -0.49414,-0.50196 v -3.00586 a 0.49999941,0.49999941 0 0 1 0.49414,-0.49414 z m -12.99804,0.9961 c -0.0737,0 -0.17303,0.041 -0.28907,0.21484 -0.11603,0.17378 -0.20703,0.46478 -0.20703,0.78906 0,0.32414 0.0914,0.60935 0.20703,0.78321 0.11604,0.17348 0.21574,0.21484 0.28907,0.21484 0.0733,0 0.17889,-0.041 0.29492,-0.21484 0.11603,-0.17379 0.20703,-0.45892 0.20703,-0.78321 0,-0.32417 -0.0914,-0.6152 -0.20703,-0.78906 -0.11565,-0.17348 -0.2216,-0.21484 -0.29492,-0.21484 z m 4,0 c -0.0737,0 -0.17108,0.041 -0.28711,0.21484 -0.11566,0.17378 -0.21488,0.46478 -0.21485,0.78906 0,0.32414 0.0992,0.60935 0.21485,0.78321 0.11603,0.17348 0.21378,0.21484 0.28711,0.21484 0.0733,0 0.17927,-0.041 0.29492,-0.21484 0.11603,-0.17379 0.20703,-0.45892 0.20703,-0.78321 0,-0.32417 -0.091,-0.6152 -0.20703,-0.78906 -0.11565,-0.17348 -0.2216,-0.21484 -0.29492,-0.21484 z m 6.00195,0 c -0.0737,0 -0.17108,0.041 -0.28711,0.21484 -0.11565,0.17378 -0.21484,0.46478 -0.21484,0.78906 0,0.32414 0.0992,0.60935 0.21484,0.78321 0.11603,0.17348 0.21341,0.21484 0.28711,0.21484 0.0737,0 0.17108,-0.041 0.28711,-0.21484 0.11565,-0.17379 0.21484,-0.45892 0.21484,-0.78321 0,-0.32417 -0.0992,-0.6152 -0.21484,-0.78906 -0.11603,-0.17348 -0.21379,-0.21484 -0.28711,-0.21484 z" transform="matrix(0.26458333,0,0,0.26458333,55.562502,71.437501)" fill="#000000" fill-opacity="1" stroke="none"/></g><text x="0" y="22.4083332" fill="#000000" font-size="5px" font-weight="bold" font-family="'Helvetica Neue', Helvetica, Arial-Unicode, Arial, Sans-serif">Created by ismail abdurrasyid</text><text x="0" y="27.4083332" fill="#000000" font-size="5px" font-weight="bold" font-family="'Helvetica Neue', Helvetica, Arial-Unicode, Arial, Sans-serif">from the Noun Project</text></svg>